<svg xmlns="http://www.w3.org/2000/svg" width="328.001" height="403.5" viewBox="0 0 328.001 403.5"><g transform="translate(-752.5 -305.5)"><g transform="translate(752.5 305.5)"><path d="M-7922.241,1096l1.748-37.57q0-41.885-7.286-55.844t-33.992-13.962q-26.706,0-60.7,21.245v44.312l1.958,41.819h-70.89l1.556-31.5q-1.279-42.858-4.917-81h245.872q.026,1.337.025,2.7l-3.644,67.984,1.917,41.819Z" transform="translate(8142 -872)" fill="green" stroke="#d9f2fa" stroke-width="1"/><path d="M-7923.483,1122.672l2.988-64.243q0-6.184-.159-11.757h68.546l-.4,7.508,3.139,68.492Zm-169.238,0,2.872-58.172q-.269-9.021-.643-17.828h68.021v7.508l3.206,68.492Z" transform="translate(8142 -867.672)" fill="#ff0" stroke="#d9f2fa" stroke-width="1"/><rect width="304" height="92" transform="translate(6.5 20.5)" fill="#cb2028"/><path d="M-8084.379,985H-8132V872h328V985h-34.63c-.2-24.008-6.529-43.313-18.812-57.379-12.487-14.3-28.11-21.549-46.436-21.549a101.243,101.243,0,0,0-52.505,14.872c-16.515,9.868-28.768,18.854-36.419,26.709a246.69,246.69,0,0,0-20.639,23.976c-1.208-22.154-3.25-45.231-6.069-68.591l-73.447,15.782c3.5,20.64,6.391,42.906,8.578,66.181Z" transform="translate(8132 -872)" fill="#fff"/><path d="M-7924.828,1127.514h74.514l3.271,71.367-81.809,15.15Zm-168.976,0h73.883l3.2,68.336-81.206,15.15Z" transform="translate(8142.686 -873.513)" fill="#f187e4" stroke="#d9f2fa" stroke-width="1"/><text transform="translate(170.5 385.5)" stroke="#000" stroke-width="1" font-size="55" font-family="Acme-Regular, Acme" letter-spacing="0.04em"><tspan x="-128.232" y="0">nairatimes</tspan></text></g></g></svg>