<?xml version="1.0" encoding="iso-8859-1"?>
<!-- Generator: Adobe Illustrator 19.0.0, SVG Export Plug-In . SVG Version: 6.00 Build 0)  -->
<svg version="1.1" id="Capa_1" xmlns="http://www.w3.org/2000/svg" xmlns:xlink="http://www.w3.org/1999/xlink" x="0px" y="0px"
	 viewBox="0 0 512.001 512.001" style="enable-background:new 0 0 512.001 512.001;" xml:space="preserve">
<g>
	<g>
		<path d="M207.798,0c-88.004,0-159.6,71.596-159.6,159.6c0,62.141,35.7,116.094,87.665,142.442
			C56.632,331.372,0.001,407.695,0.001,497.001c0,8.284,6.715,15,15,15H165.38c-1.666-4.695-2.58-9.741-2.58-15V304.2
			c0-24.813,20.186-45,45-45h124.609c21.881-27.32,34.99-61.955,34.99-99.6C367.399,71.596,295.801,0,207.798,0z"/>
	</g>
</g>
<g>
	<g>
		<polygon points="209.737,289.2 352.399,382.668 495.062,289.2 		"/>
	</g>
</g>
<g>
	<g>
		<path d="M360.62,413.148c-2.496,1.635-5.357,2.453-8.221,2.453c-2.861,0-5.724-0.818-8.22-2.453l-151.38-99.18v183.033
			c0,8.284,6.715,15,15,15h289.202c8.283,0,15-6.716,15-15V313.968L360.62,413.148z"/>
	</g>
</g>
<g>
</g>
<g>
</g>
<g>
</g>
<g>
</g>
<g>
</g>
<g>
</g>
<g>
</g>
<g>
</g>
<g>
</g>
<g>
</g>
<g>
</g>
<g>
</g>
<g>
</g>
<g>
</g>
<g>
</g>
</svg>
